<svg width="50" height="50" viewBox="0 0 50 50" fill="none" xmlns="http://www.w3.org/2000/svg">
<path d="M15.2776 42.1882C15.2776 45.3523 12.7903 47.9173 9.72206 47.9173C6.65381 47.9173 4.1665 45.3523 4.1665 42.1882C4.1665 39.024 6.65381 36.459 9.72206 36.459M15.2776 42.1882C15.2776 39.024 12.7903 36.459 9.72206 36.459M15.2776 42.1882H31.9443C33.4177 42.1882 34.8308 41.5845 35.8727 40.5101C36.9145 39.4357 37.4998 37.9785 37.4998 36.459V22.1361M9.72206 36.459V13.5423M9.72206 13.5423C12.7903 13.5423 15.2776 10.9773 15.2776 7.81315C15.2776 4.64902 12.7903 2.08398 9.72206 2.08398C6.65381 2.08398 4.1665 4.64902 4.1665 7.81315C4.1665 10.9773 6.65381 13.5423 9.72206 13.5423ZM37.4998 22.1361L29.1665 30.7298M37.4998 22.1361L45.8332 30.7298M43.0554 7.81315C43.0554 10.9773 40.5681 13.5423 37.4998 13.5423C34.4316 13.5423 31.9443 10.9773 31.9443 7.81315C31.9443 4.64902 34.4316 2.08398 37.4998 2.08398C40.5681 2.08398 43.0554 4.64902 43.0554 7.81315Z" stroke="black" stroke-width="3" stroke-linecap="round" stroke-linejoin="round"/>
</svg>
