<svg width="71" height="71" viewBox="0 0 71 71" fill="none" xmlns="http://www.w3.org/2000/svg">
<rect x="11.2168" y="0.0429688" width="60" height="60" rx="10" transform="rotate(10.6867 11.2168 0.0429688)" fill="black"/>
<path d="M24.3921 19.2031L19.1071 47.2088L45.6388 52.2157M50.9238 24.21L41.6395 24.8748M39.7008 27.9732L42.7004 34.493M40.7646 37.6L32.8074 39.3209M32.6606 40.0988C32.3363 41.8174 30.7536 42.9615 29.1254 42.6543C27.4973 42.347 26.4404 40.7048 26.7647 38.9862C27.089 37.2676 28.6718 36.1235 30.2999 36.4308C31.928 36.738 32.9849 38.3803 32.6606 40.0988ZM41.4927 25.6528C41.1684 27.3713 39.5856 28.5154 37.9575 28.2082C36.3294 27.9009 35.2724 26.2587 35.5967 24.5401C35.9211 22.8216 37.5038 21.6775 39.1319 21.9847C40.76 22.2919 41.817 23.9342 41.4927 25.6528ZM46.8073 37.9346C46.483 39.6532 44.9002 40.7973 43.2721 40.4901C41.644 40.1828 40.5871 38.5406 40.9114 36.822C41.2357 35.1034 42.8185 33.9593 44.4466 34.2666C46.0747 34.5738 47.1316 36.2161 46.8073 37.9346Z" stroke="white" stroke-width="3" stroke-linecap="round" stroke-linejoin="round"/>
</svg>
