<svg width="13" height="14" viewBox="0 0 13 14" fill="none" xmlns="http://www.w3.org/2000/svg">
<path d="M6.5 8.35194C7.50964 8.35194 8.32812 7.52541 8.32812 6.50583C8.32812 5.48625 7.50964 4.65971 6.5 4.65971C5.49035 4.65971 4.67187 5.48625 4.67187 6.50583C4.67187 7.52541 5.49035 8.35194 6.5 8.35194Z" stroke="#01A24D" stroke-width="2" stroke-linecap="round" stroke-linejoin="round"/>
<path d="M9.94723 9.98695L7.36166 12.598C7.13313 12.8285 6.82332 12.958 6.5003 12.958C6.17729 12.958 5.86748 12.8285 5.63895 12.598L3.05277 9.98695C2.37101 9.29845 1.90674 8.42126 1.71866 7.46631C1.53057 6.51135 1.62713 5.52152 1.99611 4.62198C2.3651 3.72244 2.98994 2.95359 3.79162 2.41266C4.59331 1.87173 5.53583 1.58301 6.5 1.58301C7.46417 1.58301 8.40669 1.87173 9.20838 2.41266C10.0101 2.95359 10.6349 3.72244 11.0039 4.62198C11.3729 5.52152 11.4694 6.51135 11.2813 7.46631C11.0933 8.42126 10.629 9.29845 9.94723 9.98695Z" stroke="#01A24D" stroke-width="2" stroke-linecap="round" stroke-linejoin="round"/>
</svg>
