<svg width="17" height="18" viewBox="0 0 17 18" fill="none" xmlns="http://www.w3.org/2000/svg">
<path d="M2.125 15.375V13.9583C2.125 13.2069 2.42351 12.4862 2.95486 11.9549C3.48622 11.4235 4.20689 11.125 4.95833 11.125H7.79167C8.54311 11.125 9.26378 11.4235 9.79514 11.9549C10.3265 12.4862 10.625 13.2069 10.625 13.9583V15.375M11.3333 2.71709C11.9428 2.87313 12.483 3.22758 12.8687 3.72456C13.2545 4.22153 13.4639 4.83276 13.4639 5.46188C13.4639 6.091 13.2545 6.70223 12.8687 7.1992C12.483 7.69617 11.9428 8.05062 11.3333 8.20667M14.875 15.375V13.9584C14.8714 13.333 14.661 12.7264 14.2766 12.2331C13.8923 11.7399 13.3555 11.3876 12.75 11.2313M9.20833 5.45833C9.20833 7.02314 7.93981 8.29167 6.375 8.29167C4.81019 8.29167 3.54167 7.02314 3.54167 5.45833C3.54167 3.89353 4.81019 2.625 6.375 2.625C7.93981 2.625 9.20833 3.89353 9.20833 5.45833Z" stroke="#01A24D" stroke-width="2" stroke-linecap="round" stroke-linejoin="round"/>
</svg>
