<svg width="20" height="20" viewBox="0 0 20 20" fill="none" xmlns="http://www.w3.org/2000/svg">
<path d="M1.64794 12.945C2.32758 12.9452 2.87826 13.4958 2.87836 14.1754V18.3515C2.87836 19.0312 2.32763 19.5825 1.64794 19.5827C0.968078 19.5827 0.416748 19.0314 0.416748 18.3515V14.1754C0.416844 13.4956 0.968137 12.945 1.64794 12.945ZM7.21629 8.76893C7.89598 8.76913 8.44671 9.31961 8.44671 9.99935V18.3515C8.44671 19.0312 7.89598 19.5825 7.21629 19.5827C6.53643 19.5827 5.9851 19.0314 5.9851 18.3515V9.99935C5.9851 9.31949 6.53643 8.76893 7.21629 8.76893ZM12.7839 4.59209C13.4637 4.59209 14.0151 5.14342 14.0151 5.82328V18.3515C14.0151 19.0314 13.4637 19.5827 12.7839 19.5827C12.1042 19.5825 11.5535 19.0312 11.5535 18.3515V5.82328C11.5535 5.14354 12.1042 4.59229 12.7839 4.59209ZM18.3522 0.416016C19.0321 0.416016 19.5834 0.967346 19.5834 1.64721V18.3515C19.5834 19.0314 19.0321 19.5827 18.3522 19.5827C17.6725 19.5825 17.1218 19.0312 17.1218 18.3515V1.64721C17.1218 0.967464 17.6725 0.416207 18.3522 0.416016Z" fill="#00A24D"/>
</svg>
