<svg width="48" height="48" viewBox="0 0 48 48" fill="none" xmlns="http://www.w3.org/2000/svg">
<rect width="48" height="48" rx="24" fill="#ECECF0"/>
<path d="M30.4557 33.5V31.3887C30.4557 30.5333 30.1091 29.7134 29.4935 29.1094C28.8778 28.5054 28.0431 28.167 27.1737 28.167H20.8263C19.9569 28.167 19.1221 28.5054 18.5065 29.1094C17.8908 29.7134 17.5443 30.5333 17.5443 31.3887V33.5C17.5443 34.0523 17.0866 34.5 16.5221 34.5C15.9576 34.5 15.5 34.0523 15.5 33.5V31.3887C15.5001 30.0046 16.0607 28.6768 17.0592 27.6973C18.0577 26.7177 19.4129 26.167 20.8263 26.167H27.1737C28.5871 26.167 29.9423 26.7176 30.9408 27.6973C31.9392 28.6768 32.4999 30.0046 32.5 31.3887V33.5C32.5 34.0522 32.0423 34.4999 31.4779 34.5C30.9134 34.5 30.4557 34.0523 30.4557 33.5ZM27.2815 18.7227C27.2815 16.9405 25.8092 15.5 23.9995 15.5C22.19 15.5002 20.7185 16.9406 20.7185 18.7227C20.7187 20.5045 22.1901 21.9441 23.9995 21.9443C25.8091 21.9443 27.2813 20.5047 27.2815 18.7227ZM29.3258 18.7227C29.3255 21.604 26.9434 23.9443 23.9995 23.9443C21.0558 23.9441 18.6745 21.6039 18.6742 18.7227C18.6742 15.8412 21.0556 13.5002 23.9995 13.5C26.9436 13.5 29.3258 15.8411 29.3258 18.7227Z" fill="#1A1A1A"/>
</svg>
