<svg width="259" height="62" viewBox="0 0 259 62" fill="none" xmlns="http://www.w3.org/2000/svg">
<path opacity="0.3" d="M128.575 4.67946C116.106 3.98604 104.415 3.34419 92.7242 2.68918C91.4762 2.61986 90.2377 2.48448 88.9995 2.36888C88.3804 2.31437 87.8339 2.14659 87.8898 1.71088C87.9457 1.2686 88.5619 1.17169 89.1577 1.12125C89.5407 1.08788 89.9348 1.07404 90.3182 1.06701C124.704 0.416814 158.99 0.756356 192.977 3.97945C207.9 5.39186 222.567 7.38854 236.145 11.5852C241.075 13.1083 245.711 14.9004 249.728 17.2174C260.573 23.486 260.89 31.4625 250.562 38.2774C243.476 42.9517 234.645 46.0312 225.391 48.6574C206.532 54.0151 186.582 56.8046 166.265 58.7182C147.617 60.4695 128.855 61.1889 110.077 61.0854C83.9036 60.9396 57.9034 59.7895 32.7858 55.0471C24.3598 53.4563 16.2869 51.3651 9.45606 47.8548C4.26042 45.1905 0.524895 41.9594 0.645688 37.505C0.734948 34.2367 2.98587 31.4689 6.39352 29.0223C13.9344 23.602 23.8274 20.3515 34.1337 17.5545C53.0709 12.4193 72.9081 9.28946 93.1688 7.1727C104.644 5.97439 116.192 5.18971 128.565 4.68624L128.575 4.67946ZM185.496 7.9892C187.292 9.51055 188.979 10.8495 188.684 12.7451C188.636 13.0358 188.685 13.3774 188.111 13.4998C187.475 13.6301 187.277 13.2978 187.123 13.0306C185.528 10.3069 181.635 9.56815 177.66 8.93634C169.292 7.60791 160.678 7.42339 152.089 7.37671C141.645 7.3245 131.222 7.8383 120.803 8.51012C103.699 9.60745 86.8103 11.4121 70.1854 14.2262C53.5394 17.0473 37.2452 20.4612 22.5628 26.3482C18.2152 28.0942 14.095 30.0336 11.0968 32.7296C6.91389 36.4813 7.42394 39.8901 12.5116 43.0568C16.8556 45.7697 22.194 47.5027 27.8356 48.9141C39.4289 51.8035 51.6049 53.3453 63.984 54.3434C87.1095 56.2113 110.346 56.5887 133.721 55.7584C148.832 55.2245 163.851 54.3235 178.759 52.6013C197.165 50.4724 215.139 47.4228 231.7 41.7187C238.562 39.3602 245.055 36.6528 249.12 32.2974C251.796 29.4427 251.7 26.5729 248.943 23.7981C245.925 20.7646 241.35 18.8134 236.47 17.1049C224.684 12.994 211.731 10.9395 198.531 9.35059C194.206 8.83056 189.841 8.43641 185.496 7.98261L185.496 7.9892Z" fill="#0C432E"/>
</svg>
