<svg width="91" height="43" viewBox="0 0 91 43" fill="none" xmlns="http://www.w3.org/2000/svg">
<path opacity="0.5" d="M44.9681 3.20879C40.6313 2.64614 36.5654 2.12438 32.4993 1.59347C32.0652 1.53721 31.634 1.43502 31.2031 1.34659C30.9877 1.30468 30.7967 1.18435 30.8134 0.881308C30.8299 0.573684 31.0434 0.510147 31.2501 0.478836C31.383 0.458053 31.5198 0.450935 31.653 0.448493C43.5957 0.215768 55.5103 0.671602 67.3396 3.13345C72.5335 4.21246 77.6422 5.69668 82.3866 8.70583C84.1091 9.79803 85.7314 11.0755 87.142 12.7147C90.9502 17.1492 91.1113 22.7055 87.5664 27.3849C85.1344 30.5944 82.086 32.6823 78.8874 34.4518C72.3695 38.062 65.4559 39.8767 58.4089 41.0792C51.9411 42.1794 45.4269 42.5603 38.9021 42.368C29.8074 42.099 20.7665 41.1318 12.0092 37.6687C9.07146 36.5071 6.25322 34.9992 3.85744 32.5112C2.0352 30.6227 0.716649 28.3488 0.730115 25.2479C0.740213 22.9726 1.50457 21.0596 2.67287 19.3778C5.25821 15.6517 8.67466 13.4516 12.2376 11.5699C18.7843 8.11517 25.6566 6.06269 32.6824 4.71836C36.6619 3.95737 40.6689 3.48485 44.9645 3.21344L44.9681 3.20879ZM64.7659 5.87772C65.3999 6.94859 65.9946 7.89176 65.904 9.20985C65.8892 9.41194 65.9084 9.65011 65.71 9.73172C65.4895 9.81833 65.4186 9.5857 65.3634 9.39866C64.7918 7.49183 63.4347 6.9525 62.0494 6.48711C59.1335 5.50852 56.1397 5.32492 53.155 5.23745C49.5261 5.13427 45.9081 5.42535 42.2922 5.82648C36.3566 6.48115 30.5004 7.62975 24.7422 9.48292C18.9767 11.3408 13.3373 13.6138 8.27363 17.6192C6.77428 18.8072 5.35515 20.1313 4.33071 21.9894C2.9014 24.5751 3.10042 26.952 4.88835 29.1897C6.41502 31.1066 8.28089 32.3475 10.25 33.3664C14.2965 35.4526 18.5368 36.6042 22.8442 37.3783C30.891 38.827 38.9668 39.2386 47.0828 38.81C52.3295 38.5349 57.542 38.0036 62.7106 36.8997C69.0921 35.5351 75.3175 33.5265 81.035 29.6605C83.404 28.0621 85.6427 26.2184 87.0272 23.2116C87.9386 21.2409 87.8871 19.2419 86.9113 17.2921C85.8433 15.1604 84.2412 13.7724 82.5349 12.5515C78.4135 9.61349 73.9001 8.1 69.3038 6.90912C67.7977 6.51933 66.2784 6.21693 64.7658 5.87313L64.7659 5.87772Z" fill="#B6B6B6"/>
</svg>
