<svg width="90" height="45" viewBox="0 0 90 45" fill="none" xmlns="http://www.w3.org/2000/svg">
<path opacity="0.5" d="M44.218 2.96698C39.8806 2.37127 35.8141 1.81882 31.7474 1.25673C31.3133 1.19717 30.882 1.08931 30.451 0.995929C30.2355 0.951649 30.0444 0.824945 30.0608 0.506322C30.0771 0.182878 30.2905 0.116272 30.4972 0.0835442C30.63 0.0618164 30.7668 0.0544615 30.9 0.0520195C42.8427 -0.181414 54.758 0.309131 66.5898 2.90887C71.7848 4.04833 76.8951 5.61378 81.6424 8.78231C83.3659 9.93236 84.9895 11.2772 86.4016 13.0021C90.2141 17.6684 90.3804 23.5109 86.8398 28.4278C84.4109 31.8003 81.3644 33.9928 78.1674 35.8504C71.6527 39.6402 64.7407 41.5418 57.6948 42.7996C51.2279 43.9503 44.7139 44.3447 38.1888 44.1363C29.0937 43.8449 20.0517 42.8194 11.291 39.1698C8.35217 37.9455 5.53246 36.3574 3.13429 33.739C1.31024 31.7516 -0.0104823 29.3594 5.63874e-05 26.0989C0.00800781 23.7065 0.77057 21.6957 1.93731 19.9284C4.51917 16.013 7.9336 13.7028 11.4948 11.7276C18.0384 8.10122 24.9088 5.94957 31.9335 4.54266C35.9124 3.74625 39.919 3.25319 44.2144 2.97187L44.218 2.96698ZM64.0187 5.79198C64.6537 6.91859 65.2492 7.91086 65.1599 9.29672C65.1453 9.50921 65.1647 9.75965 64.9664 9.84528C64.746 9.93614 64.6749 9.69147 64.6195 9.49474C64.0461 7.48921 62.6885 6.92084 61.3027 6.43018C58.3858 5.39847 55.3918 5.20258 52.407 5.10779C48.7779 4.99588 45.1601 5.29853 41.5445 5.7169C35.6094 6.39966 29.7542 7.60186 23.9977 9.545C18.2338 11.4931 12.5964 13.8777 7.5365 18.0846C6.03825 19.3323 4.62034 20.7232 3.59764 22.6761C2.17074 25.3935 2.37202 27.893 4.16208 30.2476C5.69059 32.2645 7.55767 33.5711 9.5278 34.6443C13.5763 36.8417 17.8178 38.0565 22.126 38.8746C30.1743 40.4055 38.2506 40.8458 46.3663 40.4028C51.6129 40.1185 56.8249 39.5648 61.9926 38.409C68.373 36.9801 74.5965 34.8741 80.3105 30.8144C82.678 29.136 84.915 27.1995 86.2967 24.0392C87.2062 21.9679 87.1529 19.866 86.1752 17.8148C85.1052 15.5724 83.5018 14.1115 81.7942 12.8261C77.6701 9.73295 73.1551 8.13729 68.5576 6.88077C67.0511 6.46949 65.5315 6.15009 64.0186 5.78716L64.0187 5.79198Z" fill="#484848"/>
</svg>
