<svg width="46" height="44" viewBox="0 0 46 44" fill="none" xmlns="http://www.w3.org/2000/svg">
<path d="M2.1665 41.7493V37.3512C2.1665 35.0183 3.09069 32.7809 4.73574 31.1313C6.3808 29.4817 8.61197 28.5549 10.9384 28.5549H19.7104C22.0368 28.5549 24.268 29.4817 25.9131 31.1313C27.5581 32.7809 28.4823 35.0183 28.4823 37.3512V41.7493M30.6753 19.7586L35.0612 24.1568L43.8332 15.3605M24.0963 10.9623C24.0963 15.8204 20.169 19.7586 15.3244 19.7586C10.4798 19.7586 6.55247 15.8204 6.55247 10.9623C6.55247 6.10425 10.4798 2.16602 15.3244 2.16602C20.169 2.16602 24.0963 6.10425 24.0963 10.9623Z" stroke="black" stroke-width="3" stroke-linecap="round" stroke-linejoin="round"/>
</svg>
