<svg width="122" height="36" viewBox="0 0 122 36" fill="none" xmlns="http://www.w3.org/2000/svg">
<path opacity="0.3" d="M60.4149 2.61297C54.5547 2.18569 49.0606 1.7899 43.5663 1.38647C42.9798 1.34375 42.3976 1.26275 41.8156 1.19322C41.5246 1.16036 41.2675 1.06196 41.2929 0.809413C41.3183 0.553049 41.6076 0.498097 41.8874 0.47005C42.0673 0.451475 42.2524 0.444243 42.4326 0.44094C58.5872 0.133295 74.6972 0.399388 90.6727 2.33701C97.687 3.18617 104.582 4.37362 110.97 6.83459C113.29 7.72782 115.472 8.77634 117.364 10.1281C122.472 13.7851 122.637 18.4112 117.798 22.3422C114.478 25.0384 110.335 26.8064 105.992 28.3106C97.1426 31.3795 87.7747 32.9568 78.2324 34.0254C69.4743 35.0034 60.6602 35.3827 51.8374 35.2847C39.5395 35.1474 27.321 34.428 15.51 31.6272C11.5478 30.6877 7.75056 29.4588 4.53401 27.4094C2.08746 25.854 0.325808 23.9727 0.373573 21.3899C0.408916 19.4949 1.46092 17.8944 3.05707 16.4825C6.58921 13.3546 11.2309 11.4896 16.0676 9.88846C24.9549 6.94882 34.2691 5.1739 43.7842 3.98731C49.1737 3.31558 54.5976 2.88386 60.4099 2.61688L60.4149 2.61297ZM87.1656 4.64712C88.0129 5.53296 88.8081 6.31281 88.6731 7.41145C88.6512 7.57991 88.6748 7.77809 88.4058 7.84795C88.1067 7.92218 88.0131 7.72911 87.9402 7.57385C87.1852 5.99119 85.355 5.55495 83.4858 5.18054C79.5514 4.39331 75.5041 4.26893 71.4682 4.22452C66.5611 4.17317 61.6651 4.45008 56.7707 4.81863C48.7367 5.42044 40.8053 6.43287 32.9998 8.03117C25.1843 9.63347 17.5354 11.5803 10.6488 14.9645C8.6096 15.9682 6.67762 17.0845 5.27438 18.6418C3.31662 20.8089 3.56314 22.7867 5.95996 24.6333C8.00648 26.2152 10.5182 27.231 13.1717 28.0608C18.6247 29.7597 24.3487 30.6784 30.167 31.2821C41.0363 32.412 51.9548 32.6777 62.9356 32.2434C70.0344 31.9643 77.0892 31.4721 84.0902 30.5035C92.7341 29.3062 101.173 27.574 108.943 24.2997C112.162 22.9459 115.207 21.389 117.109 18.8715C118.36 17.2215 118.309 15.5572 117.008 13.9426C115.584 12.1774 113.43 11.0367 111.134 10.0361C105.588 7.6284 99.4983 6.4109 93.2932 5.46288C91.26 5.15259 89.2081 4.91522 87.1655 4.6433L87.1656 4.64712Z" fill="#0C432E"/>
</svg>
