<svg width="259" height="62" viewBox="0 0 259 62" fill="none" xmlns="http://www.w3.org/2000/svg">
<path opacity="0.96" d="M128.565 4.67946C116.096 3.98604 104.405 3.34419 92.7145 2.68918C91.4665 2.61986 90.2279 2.48448 88.9897 2.36888C88.3707 2.31437 87.8241 2.14659 87.8801 1.71088C87.9359 1.2686 88.5522 1.17169 89.148 1.12125C89.531 1.08788 89.925 1.07404 90.3085 1.06701C124.694 0.416814 158.98 0.756356 192.967 3.97945C207.89 5.39186 222.557 7.38854 236.135 11.5852C241.065 13.1083 245.701 14.9004 249.718 17.2174C260.564 23.486 260.88 31.4625 250.552 38.2774C243.466 42.9517 234.636 46.0312 225.381 48.6574C206.523 54.0151 186.573 56.8046 166.255 58.7182C147.607 60.4695 128.845 61.1889 110.067 61.0854C83.8938 60.9396 57.8937 59.7895 32.776 55.0471C24.35 53.4563 16.2771 51.3651 9.44629 47.8548C4.25065 45.1905 0.515129 41.9594 0.635922 37.505C0.725182 34.2367 2.97611 31.4689 6.38376 29.0223C13.9247 23.602 23.8177 20.3515 34.1239 17.5545C53.0612 12.4193 72.8983 9.28946 93.159 7.1727C104.635 5.97439 116.182 5.18971 128.555 4.68624L128.565 4.67946ZM185.486 7.9892C187.283 9.51055 188.97 10.8495 188.674 12.7451C188.626 13.0358 188.675 13.3774 188.102 13.4998C187.465 13.6301 187.267 13.2978 187.113 13.0306C185.518 10.3069 181.625 9.56815 177.65 8.93634C169.282 7.60791 160.669 7.42339 152.079 7.37671C141.635 7.3245 131.213 7.8383 120.793 8.51012C103.689 9.60745 86.8005 11.4121 70.1757 14.2262C53.5296 17.0473 37.2354 20.4612 22.553 26.3482C18.2054 28.0942 14.0852 30.0336 11.087 32.7296C6.90413 36.4813 7.41417 39.8901 12.5018 43.0568C16.8459 45.7697 22.1843 47.5027 27.8258 48.9141C39.4191 51.8035 51.5951 53.3453 63.9742 54.3434C87.0998 56.2113 110.337 56.5887 133.711 55.7584C148.822 55.2245 163.841 54.3235 178.749 52.6013C197.155 50.4724 215.129 47.4228 231.69 41.7187C238.552 39.3602 245.045 36.6528 249.11 32.2974C251.786 29.4427 251.691 26.5729 248.933 23.7981C245.915 20.7646 241.34 18.8134 236.46 17.1049C224.674 12.994 211.722 10.9395 198.522 9.35059C194.197 8.83056 189.831 8.43641 185.486 7.98261L185.486 7.9892Z" fill="#00BF5A"/>
</svg>
