<svg width="50" height="52" viewBox="0 0 50 52" fill="none" xmlns="http://www.w3.org/2000/svg">
<g filter="url(#filter0_d_8271_9675)">
<rect x="4" width="44" height="44" rx="22" fill="white" shape-rendering="crispEdges"/>
<path d="M32.0492 14.3347C32.4955 13.8884 33.2189 13.8884 33.6653 14.3347C34.1116 14.7811 34.1116 15.5045 33.6653 15.9508L27.6161 22L33.6653 28.0492C34.1116 28.4955 34.1116 29.2189 33.6653 29.6653C33.2189 30.1116 32.4955 30.1116 32.0492 29.6653L26 23.6161L19.9508 29.6653C19.5045 30.1116 18.7811 30.1116 18.3347 29.6653C17.8884 29.2189 17.8884 28.4955 18.3347 28.0492L24.3839 22L18.3347 15.9508C17.8884 15.5045 17.8884 14.7811 18.3347 14.3347C18.7811 13.8884 19.5045 13.8884 19.9508 14.3347L26 20.3839L32.0492 14.3347Z" fill="#1A1A1A"/>
</g>
<defs>
<filter id="filter0_d_8271_9675" x="0" y="0" width="52" height="52" filterUnits="userSpaceOnUse" color-interpolation-filters="sRGB">
<feFlood flood-opacity="0" result="BackgroundImageFix"/>
<feColorMatrix in="SourceAlpha" type="matrix" values="0 0 0 0 0 0 0 0 0 0 0 0 0 0 0 0 0 0 127 0" result="hardAlpha"/>
<feOffset dy="4"/>
<feGaussianBlur stdDeviation="2"/>
<feComposite in2="hardAlpha" operator="out"/>
<feColorMatrix type="matrix" values="0 0 0 0 0 0 0 0 0 0 0 0 0 0 0 0 0 0 0.15 0"/>
<feBlend mode="normal" in2="BackgroundImageFix" result="effect1_dropShadow_8271_9675"/>
<feBlend mode="normal" in="SourceGraphic" in2="effect1_dropShadow_8271_9675" result="shape"/>
</filter>
</defs>
</svg>
