<svg width="16" height="16" viewBox="0 0 16 16" fill="none" xmlns="http://www.w3.org/2000/svg">
<path d="M14.0492 0.334739C14.4955 -0.11158 15.2189 -0.11158 15.6653 0.334739C16.1116 0.781057 16.1116 1.50451 15.6653 1.95083L9.61609 8L15.6653 14.0492C16.1116 14.4955 16.1116 15.2189 15.6653 15.6653C15.2189 16.1116 14.4955 16.1116 14.0492 15.6653L8 9.61609L1.95083 15.6653C1.50451 16.1116 0.781057 16.1116 0.334739 15.6653C-0.11158 15.2189 -0.11158 14.4955 0.334739 14.0492L6.38391 8L0.334739 1.95083C-0.11158 1.50451 -0.11158 0.781057 0.334739 0.334739C0.781057 -0.11158 1.50451 -0.11158 1.95083 0.334739L8 6.38391L14.0492 0.334739Z" fill="#1A1A1A"/>
</svg>
