<svg width="61" height="60" viewBox="0 0 61 60" fill="none" xmlns="http://www.w3.org/2000/svg">
<rect x="0.933594" width="60" height="60" rx="10" fill="#F9AAE8"/>
<path d="M17.4336 43.5V40.5C17.4336 38.9087 18.0657 37.3826 19.191 36.2574C20.3162 35.1321 21.8423 34.5 23.4336 34.5H29.4336C31.0249 34.5 32.551 35.1321 33.6762 36.2574C34.8015 37.3826 35.4336 38.9087 35.4336 40.5V43.5M36.9336 16.695C38.2242 17.0255 39.3681 17.7761 40.1851 18.8285C41.002 19.8809 41.4454 21.1753 41.4454 22.5075C41.4454 23.8398 41.002 25.1341 40.1851 26.1865C39.3681 27.239 38.2242 27.9896 36.9336 28.32M44.4336 43.5V40.5C44.426 39.1758 43.9805 37.8912 43.1665 36.8466C42.3525 35.802 41.2158 35.0561 39.9336 34.725M32.4336 22.5C32.4336 25.8137 29.7473 28.5 26.4336 28.5C23.1199 28.5 20.4336 25.8137 20.4336 22.5C20.4336 19.1863 23.1199 16.5 26.4336 16.5C29.7473 16.5 32.4336 19.1863 32.4336 22.5Z" stroke="black" stroke-width="3" stroke-linecap="round" stroke-linejoin="round"/>
</svg>
