<svg width="61" height="60" viewBox="0 0 61 60" fill="none" xmlns="http://www.w3.org/2000/svg">
<rect x="0.933105" width="60" height="60" rx="10" fill="white"/>
<path d="M46.4331 45.5L36.0998 35.1667M27.4887 31.7222V31.7394M27.4887 26.5556C27.9221 26.5558 28.3487 26.4469 28.7291 26.239C29.1095 26.031 29.4314 25.7307 29.6652 25.3657C29.899 25.0007 30.0373 24.5827 30.0672 24.1503C30.097 23.7178 30.0176 23.2848 29.8362 22.8911C29.6548 22.4974 29.3772 22.1557 29.029 21.8974C28.6809 21.6392 28.2733 21.4727 27.8439 21.4133C27.4145 21.3539 26.9771 21.4035 26.5719 21.5575C26.1667 21.7116 25.8068 21.9651 25.5253 22.2948M39.5442 26.5556C39.5442 33.2137 34.1468 38.6111 27.4887 38.6111C20.8306 38.6111 15.4331 33.2137 15.4331 26.5556C15.4331 19.8975 20.8306 14.5 27.4887 14.5C34.1468 14.5 39.5442 19.8975 39.5442 26.5556Z" stroke="black" stroke-width="3" stroke-linecap="round" stroke-linejoin="round"/>
</svg>
