<svg width="61" height="60" viewBox="0 0 61 60" fill="none" xmlns="http://www.w3.org/2000/svg">
<rect x="0.933105" width="60" height="60" rx="10" fill="#00BF5A"/>
<path d="M20.5166 40.416H25.7249V34.166H30.9333V27.916H36.1416V21.666H41.3499" stroke="white" stroke-width="3" stroke-linecap="round" stroke-linejoin="round"/>
<path d="M23.1206 18.541V19.9299V18.541Z" fill="white"/>
<path d="M24.6831 19.9299H22.73C22.4192 19.9299 22.1211 20.0762 21.9013 20.3367C21.6816 20.5972 21.5581 20.9504 21.5581 21.3188C21.5581 21.6871 21.6816 22.0404 21.9013 22.3009C22.1211 22.5614 22.4192 22.7077 22.73 22.7077H23.5112C23.822 22.7077 24.1201 22.854 24.3399 23.1145C24.5596 23.3749 24.6831 23.7282 24.6831 24.0966C24.6831 24.4649 24.5596 24.8182 24.3399 25.0787C24.1201 25.3391 23.822 25.4855 23.5112 25.4855H21.5581M23.1206 25.4855V26.8743M23.1206 18.541V19.9299" stroke="white" stroke-width="3" stroke-linecap="round" stroke-linejoin="round"/>
</svg>
