<svg width="20" height="22" viewBox="0 0 20 22" fill="none" xmlns="http://www.w3.org/2000/svg">
<path d="M5.38463 8.96224V1.83301L3.33334 3.86993M3.33334 15.073C3.33334 14.5328 3.54946 14.0147 3.93415 13.6327C4.31884 13.2507 4.84059 13.0361 5.38463 13.0361C5.92866 13.0361 6.45041 13.2507 6.8351 13.6327C7.21979 14.0147 7.43591 14.5328 7.43591 15.073C7.43591 15.6749 6.8195 16.56 6.41027 17.1099L3.33334 20.1663H7.43591M12.5641 13.0361C12.5641 13.439 12.6844 13.8328 12.9098 14.1677C13.1352 14.5027 13.4556 14.7638 13.8304 14.918C14.2052 15.0721 14.6177 15.1125 15.0156 15.0339C15.4135 14.9553 15.779 14.7613 16.0659 14.4764C16.3527 14.1915 16.5481 13.8286 16.6273 13.4335C16.7064 13.0383 16.6658 12.6288 16.5105 12.2566C16.3553 11.8844 16.0924 11.5663 15.755 11.3424C15.4177 11.1186 15.0211 10.9992 14.6154 10.9992C15.0211 10.9992 15.4177 10.8797 15.755 10.6559C16.0924 10.4321 16.3553 10.1139 16.5105 9.74174C16.6658 9.36954 16.7064 8.95998 16.6273 8.56486C16.5481 8.16973 16.3527 7.80679 16.0659 7.52192C15.779 7.23705 15.4135 7.04305 15.0156 6.96446C14.6177 6.88586 14.2052 6.9262 13.8304 7.08037C13.4556 7.23454 13.1352 7.49562 12.9098 7.83059C12.6844 8.16556 12.5641 8.55938 12.5641 8.96224M3.84616 8.96224H6.92309" stroke="#01A24D" stroke-width="2" stroke-linecap="round" stroke-linejoin="round"/>
</svg>
