<svg width="20" height="20" viewBox="0 0 20 20" fill="none" xmlns="http://www.w3.org/2000/svg">
<path d="M1.66669 17.5003V15.7411C1.66669 14.8079 2.03636 13.9129 2.69438 13.2531C3.3524 12.5932 4.24487 12.2225 5.17546 12.2225H8.68423C9.61482 12.2225 10.5073 12.5932 11.1653 13.2531C11.8233 13.9129 12.193 14.8079 12.193 15.7411V17.5003M13.0702 8.70403L14.8246 10.4633L18.3334 6.94477M10.4386 5.18551C10.4386 7.12873 8.86769 8.70403 6.92985 8.70403C4.992 8.70403 3.42107 7.12873 3.42107 5.18551C3.42107 3.24229 4.992 1.66699 6.92985 1.66699C8.86769 1.66699 10.4386 3.24229 10.4386 5.18551Z" stroke="#01A24D" stroke-width="2" stroke-linecap="round" stroke-linejoin="round"/>
</svg>
