<svg width="23" height="18" viewBox="0 0 23 18" fill="none" xmlns="http://www.w3.org/2000/svg">
<path d="M21.5 10.1429V17M1.5 17V5.57143C1.5 4.35901 1.96825 3.19625 2.80175 2.33894C3.63524 1.48163 4.7657 1 5.94444 1C7.12318 1 8.25365 1.48163 9.08714 2.33894C9.92064 3.19625 10.3889 4.35901 10.3889 5.57143V17M1.5 10.1429H10.3889M21.5 13.5714C21.5 15.465 20.0076 17 18.1667 17C16.3257 17 14.8333 15.465 14.8333 13.5714C14.8333 11.6779 16.3257 10.1429 18.1667 10.1429C20.0076 10.1429 21.5 11.6779 21.5 13.5714Z" stroke="#01A24D" stroke-width="2" stroke-linecap="round" stroke-linejoin="round"/>
</svg>
