<svg width="20" height="21" viewBox="0 0 20 21" fill="none" xmlns="http://www.w3.org/2000/svg">
<path d="M10 12.0807C11.5533 12.0807 12.8125 10.8091 12.8125 9.24056C12.8125 7.67197 11.5533 6.40038 10 6.40038C8.4467 6.40038 7.1875 7.67197 7.1875 9.24056C7.1875 10.8091 8.4467 12.0807 10 12.0807Z" stroke="#01A24D" stroke-width="2" stroke-linecap="round" stroke-linejoin="round"/>
<path d="M15.3034 14.5961L11.3256 18.6131C10.974 18.9678 10.4974 19.167 10.0005 19.167C9.50352 19.167 9.02689 18.9678 8.67531 18.6131L4.69657 14.5961C3.64771 13.5369 2.93344 12.1874 2.64409 10.7182C2.35473 9.24906 2.50328 7.72624 3.07094 6.34233C3.63861 4.95843 4.59991 3.77558 5.83327 2.94338C7.06663 2.11118 8.51666 1.66699 10 1.66699C11.4833 1.66699 12.9334 2.11118 14.1667 2.94338C15.4001 3.77558 16.3614 4.95843 16.9291 6.34233C17.4967 7.72624 17.6453 9.24906 17.3559 10.7182C17.0666 12.1874 16.3523 13.5369 15.3034 14.5961Z" stroke="#01A24D" stroke-width="2" stroke-linecap="round" stroke-linejoin="round"/>
</svg>
