<svg width="139" height="160" viewBox="0 0 139 160" fill="none" xmlns="http://www.w3.org/2000/svg">
<g clip-path="url(#clip0_8214_14378)">
<g clip-path="url(#clip1_8214_14378)">
<path opacity="0.5" d="M64.4805 34.8203C75.1078 31.69 84.9805 32.7061 92.9424 37.0312C100.904 41.3565 107.127 49.0843 110.281 59.6973C116.399 80.2814 105.721 99.9334 85.6035 105.859L55.7109 114.664L53.7881 115.23L54.3594 117.152L57.7188 128.457L58.2871 130.37L60.2012 129.806L83.9678 122.806L87.0645 133.225L63.3076 140.224L61.3838 140.79L61.9551 142.712L65.6201 155.044L50.4346 159.517L46.7676 147.176L46.1992 145.264L44.2852 145.827L32.2031 149.385L29.1055 138.966L41.1787 135.41L43.1016 134.843L42.5303 132.922L39.1709 121.616L38.6025 119.704L36.6885 120.268L24.6064 123.825L19.9512 108.163L32.0244 104.607L33.9473 104.041L33.376 102.119L17.4873 48.6621L64.4805 34.8203ZM85.7363 52.9238C81.1525 50.6311 75.5747 50.3687 69.6318 52.1191L39.7393 60.9238L37.8154 61.4902L38.3867 63.4121L48.5645 97.6553L49.1328 99.5684L51.0469 99.0039L80.9395 90.1992C86.8439 88.4599 91.3491 85.1188 93.9307 80.6533C96.5189 76.1763 97.0574 70.7673 95.3857 65.1436C93.6945 59.4533 90.3388 55.226 85.7363 52.9238Z" stroke="white" stroke-width="4"/>
</g>
</g>
<defs>
<clipPath id="clip0_8214_14378">
<rect width="139" height="160" fill="white"/>
</clipPath>
<clipPath id="clip1_8214_14378">
<rect width="229" height="194" fill="white"/>
</clipPath>
</defs>
</svg>
