<svg width="263" height="234" viewBox="0 0 263 234" fill="none" xmlns="http://www.w3.org/2000/svg">
<g clip-path="url(#clip0_8214_14386)">
<g clip-path="url(#clip1_8214_14386)">
<path d="M271.384 97.3884L42.2291 181.892C32.9553 185.312 29.9386 200.29 35.491 215.347L112.272 423.559C117.824 438.616 129.843 448.05 139.117 444.63L368.272 360.127C377.546 356.707 380.562 341.729 375.01 326.672L298.229 118.459C292.677 103.402 280.658 93.9686 271.384 97.3884Z" fill="#FAF7F2"/>
<path d="M181.216 33.8075L135.185 183.9C133.323 189.974 139.807 197.35 149.669 200.375L286.045 242.198C295.907 245.223 305.412 242.751 307.275 236.676L353.305 86.5837C355.168 80.5096 348.683 73.1337 338.821 70.1092L202.446 28.2856C192.583 25.2611 183.079 27.7334 181.216 33.8075Z" fill="#F9AAE8"/>
</g>
</g>
<defs>
<clipPath id="clip0_8214_14386">
<rect width="271" height="251" fill="white"/>
</clipPath>
<clipPath id="clip1_8214_14386">
<rect width="271" height="264" fill="white"/>
</clipPath>
</defs>
</svg>
