<svg width="346" height="198" viewBox="0 0 346 198" fill="none" xmlns="http://www.w3.org/2000/svg">
<g clip-path="url(#clip0_8214_14395)">
<path d="M278.463 4.86486L458.492 71.2526C465.777 73.9392 468.147 85.7065 463.785 97.5356L403.465 261.111C399.103 272.941 389.661 280.352 382.375 277.665L202.346 211.278C195.06 208.591 192.69 196.824 197.052 184.995L257.373 21.4186C261.735 9.58959 271.177 2.17821 278.463 4.86486Z" fill="#FAF7F2"/>
<path d="M285.659 80.1569L350.55 223.111C353.176 228.896 347.69 237.042 338.297 241.306L208.408 300.266C199.015 304.53 189.272 303.297 186.646 297.511L121.755 154.558C119.129 148.772 124.615 140.626 134.007 136.362L263.897 77.402C273.29 73.1383 283.033 74.3717 285.659 80.1569Z" fill="#00A24D"/>
</g>
<defs>
<clipPath id="clip0_8214_14395">
<rect width="356" height="213" fill="white"/>
</clipPath>
</defs>
</svg>
