<svg width="163" height="144" viewBox="0 0 163 144" fill="none" xmlns="http://www.w3.org/2000/svg">
<g clip-path="url(#clip0_8214_14401)">
<g opacity="0.8" clip-path="url(#clip1_8214_14401)">
<g clip-path="url(#clip2_8214_14401)">
<path d="M70.2055 3.20117C73.7138 2.76308 82.2652 3.07612 86.4 3.79583C108.796 7.7073 127.121 23.5408 133.981 44.8818C137.113 54.7074 137.677 65.7847 135.578 76.0797C133.824 84.7162 130.942 91.9938 125.241 99.3786L134.639 110.175C134.639 110.175 160.271 137.886 161.42 139.79C162.485 141.573 163.237 144.765 163.049 146.674C162.611 150.773 160.261 154.184 156.628 155.967C154.748 156.906 154.279 157 151.71 157C149.141 157 148.672 156.906 146.792 155.967C144.819 154.997 144.13 154.309 135.046 144.233C129.752 138.35 123.769 131.748 121.765 129.526C120.563 128.22 119.423 126.856 118.35 125.443C117.567 124.412 110.864 117.309 108.64 114.555C87.559 128.668 61.1842 127.523 40.3852 112.19C37.5035 110.063 31.8653 104.618 29.3907 101.614C23.2826 94.1349 18.7719 84.5284 16.7985 74.7654C16.172 71.6988 16.0781 70.2906 16.0781 63.5942C16.0781 56.8979 16.1722 55.4896 16.7673 52.4856C19.2419 40.3132 24.3791 30.3937 32.6485 21.7259C42.5155 11.431 55.3581 5.07867 70.2055 3.20117ZM133.981 112.941C133.981 112.941 124.458 101.647 123.519 102.351C122.579 102.977 114.623 110.205 112.712 111.895C109.704 114.555 111.79 114.555 125.743 130.152C134.169 139.571 143.315 149.584 145.414 151.68C148.202 154.465 151.052 155.248 154.56 154.184C158.006 153.182 160.481 149.678 160.449 145.891C160.418 143.044 159.384 140.885 156.659 137.975C155.5 136.723 152.462 133.375 149.956 130.558C143.096 122.798 133.981 112.941 133.981 112.941ZM87.7783 6.61209C83.6749 5.73592 72.179 5.48565 67.6057 6.20536C46.9634 9.42841 29.3906 23.7599 22.0608 43.3172C19.3357 50.6394 18.2394 57.4611 18.5213 65.6282C19.1165 82.8386 27.2294 98.6411 40.9805 109.312C56.4544 121.328 76.0006 124.832 94.137 118.824C103.377 115.758 111.647 110.532 118.194 103.616C136.957 83.8088 139.556 53.6747 124.458 31.2073C116.032 18.6593 103.064 9.96032 87.7783 6.61209ZM72.3043 14.1844C93.761 12.5573 113.276 24.3857 121.796 44.0995C124.364 50.0449 125.586 56.5223 125.586 63.9071C125.555 74.4524 122.579 83.8712 116.565 92.3199C109.454 102.302 98.6161 109.53 86.9949 112.034C80.0098 113.567 74.0582 113.629 67.1044 112.221C47.7463 108.404 32.3351 93.3838 28.1378 74.2645C27.1041 69.6021 26.728 64.0949 27.1666 59.5889C28.3882 46.7906 32.8048 37.309 41.5755 28.516C50.1582 19.9734 60.7145 15.0293 72.3043 14.1844ZM77.4727 16.8131C70.8948 16.6879 69.0779 16.8755 64.63 18.0333C54.1991 20.8182 45.2719 26.9204 38.6312 35.8072C33.3689 42.8478 30.5495 50.4518 29.6725 59.9018C28.4509 73.0756 33.4942 86.7188 43.1732 96.4505C50.5656 103.898 59.0544 108.31 69.3285 110.125C71.4898 110.501 73.4946 110.563 77.9426 110.438C83.0483 110.313 84.176 110.188 87.3397 109.343C96.3609 107.027 102.563 103.46 109.266 96.7634C116.032 90.0044 120.292 82.1502 122.328 72.6688C123.143 68.8825 123.143 57.9932 122.328 54.2693C119.635 41.8152 112.587 31.3635 102.218 24.4481C97.4886 21.2876 92.5394 19.1911 86.0867 17.5639C83.9567 17.0632 82.2025 16.9069 77.4727 16.8131ZM70.9889 30.2373C71.5841 29.6115 81.1693 29.6113 81.7644 30.2059C81.9837 30.4249 82.5789 32.2713 83.0801 34.3053C83.9571 37.9662 83.9885 37.9976 85.1161 38.467C85.7426 38.7173 86.8389 39.1866 87.5593 39.5307L88.875 40.1566L92.4145 38.1226C94.3562 36.9963 96.1727 36.0578 96.4551 36.0575C97.0502 36.0575 103.346 42.3467 103.691 43.2857C103.879 43.7551 103.409 44.8192 101.874 47.479L99.8383 51.0775L100.621 53.0803C101.06 54.1755 101.436 55.2394 101.436 55.4272C101.436 55.6149 102.031 55.8965 102.783 56.0842C107.638 57.3671 109.455 57.9929 109.799 58.4622C110.081 58.869 110.206 60.4024 110.206 63.7818C110.206 67.6933 110.112 68.6009 109.736 68.9138C109.454 69.1329 107.606 69.79 105.602 70.3219C103.566 70.8851 101.843 71.5109 101.686 71.7612C100.903 73.2006 99.9323 76.2675 100.152 76.5491C100.653 77.1756 103.535 82.5258 103.754 83.2142C103.942 83.8087 103.44 84.4972 100.809 87.3759C99.0239 89.3158 97.3012 90.9115 96.8625 91.0056C96.2674 91.1621 95.2337 90.724 92.4772 89.1281L88.9062 87.063L87.5905 87.72C86.8701 88.0955 85.8052 88.5651 85.21 88.7529C84.1451 89.1284 84.0824 89.2221 83.0801 92.852C82.5163 94.8859 81.8584 96.7635 81.6078 96.9825C81.2632 97.358 80.1041 97.4204 76.2201 97.4204C73.4957 97.3892 71.1782 97.2955 71.0204 97.2016C70.7385 97.0452 70.5505 96.3565 69.3288 91.7879L68.6396 89.1281L66.1965 88.0956L63.7533 87.0942L60.4016 89.097C58.5223 90.2233 56.7684 91.1307 56.4549 91.1309C56.1416 91.1309 54.356 89.6289 52.5079 87.7826C49.9083 85.1857 49.1251 84.2156 49.125 83.5897C49.125 82.87 51.0043 79.0836 52.4452 76.8932C52.8211 76.2987 52.7899 76.017 52.0696 74.2022C51.631 73.107 51.1609 72.0116 51.0356 71.7612C50.9097 71.542 49.1872 70.8849 47.1829 70.3531C45.1782 69.7898 43.33 69.164 43.0481 68.945C42.3591 68.3493 42.2966 58.869 42.9857 58.212C43.2365 57.9616 44.959 57.367 46.8069 56.8976C50.8475 55.8964 51.0671 55.8025 51.3177 54.8013C51.443 54.3946 51.8503 53.4243 52.2262 52.6733L52.8839 51.2651L51.0356 47.9483C50.0333 46.1021 49.0937 44.3184 48.9684 43.9116C48.7805 43.3171 49.2818 42.6912 52.2886 39.6249C54.3558 37.5285 56.0786 36.0577 56.4234 36.0575C56.7679 36.0575 58.4909 36.9649 60.3076 38.0914C62.0927 39.2177 63.6585 40.125 63.7845 40.1254C63.9098 40.1254 64.7242 39.7812 65.57 39.3431C66.4469 38.9364 67.3551 38.561 67.6372 38.5608C68.4516 38.5608 68.7022 37.9974 69.6733 34.2111C70.143 32.2401 70.7383 30.4569 70.9889 30.2373ZM76.3455 32.3025C73.8709 32.3025 72.8684 32.4277 72.7744 32.678C72.7117 32.8973 72.3359 34.274 71.9913 35.7446C70.895 40.2192 70.8324 40.3757 69.7048 40.5948C69.1409 40.7199 67.6685 41.2831 66.3843 41.8776C65.1002 42.4721 63.8789 42.9415 63.6594 42.9417C63.4401 42.9417 61.7799 42.0341 59.9944 40.9389L56.7366 38.9364L54.3561 41.1268C53.0094 42.3157 51.9444 43.5046 51.9441 43.7551C51.9441 44.1932 54.8885 49.7008 55.421 50.264C55.8908 50.7647 55.7342 51.5468 54.9511 52.9862C54.5439 53.7372 53.949 55.1767 53.6357 56.178C53.1972 57.6487 52.9151 58.0243 52.2886 58.1808C51.8498 58.2747 50.0645 58.744 48.3419 59.2134L45.2095 60.0268L45.1156 63.5004L45.0217 66.9736L46.6818 67.4745C47.5902 67.7248 49.3443 68.1627 50.5346 68.4756C53.2284 69.1327 53.4164 69.258 53.6669 70.7913C53.7609 71.4484 54.2933 72.8566 54.7945 73.9205C55.2957 74.9844 55.703 76.0171 55.703 76.1735C55.7027 76.3617 54.8571 77.9573 53.8236 79.7406C52.7901 81.4925 51.9446 83.0568 51.9441 83.1827C51.9441 83.5269 56.3914 88.001 56.7366 88.0017C56.8619 88.0017 58.4281 87.1569 60.1822 86.1242C61.9671 85.0919 63.5643 84.2473 63.7218 84.2467C63.9097 84.2467 65.0061 84.7163 66.2277 85.3108C67.4179 85.9053 68.8589 86.4684 69.4227 86.5936C70.6757 86.844 70.9576 87.4385 72.0225 91.8506L72.7432 94.9171L79.9477 94.7295L80.9186 90.9745L81.8895 87.2506L84.1137 86.406C85.3667 85.9679 86.8701 85.2792 87.4966 84.9037C88.1229 84.5596 88.7805 84.2469 88.9374 84.2467C89.094 84.2467 90.8169 85.1542 92.7589 86.2807L96.2673 88.2835L98.7105 85.874L101.154 83.4333L99.1176 79.9285C97.9904 78.0205 97.0511 76.3625 97.0504 76.2362C97.0504 76.111 97.4577 75.1408 97.9589 74.0769C98.4601 73.013 98.9611 71.6361 99.0864 71.0416C99.2117 70.447 99.3996 69.8212 99.4936 69.6334C99.6188 69.4457 101.467 68.7887 103.628 68.1941L107.544 67.1301V60.0268L104.411 59.2134C102.689 58.744 100.903 58.2747 100.433 58.1808C99.7755 57.993 99.4937 57.6487 99.0552 56.3345C98.7733 55.427 98.1155 53.8624 97.6456 52.8924L96.7683 51.1402L98.9298 47.4163L101.091 43.7239L98.6478 41.2833L96.2361 38.8426L92.665 40.9389C89.2821 42.9415 89.094 43.0355 88.1543 42.6287C87.6217 42.4097 85.9928 41.7838 84.5521 41.2206L81.8895 40.188L81.1692 37.403C80.762 35.9011 80.2923 34.1175 80.1043 33.4603L79.7911 32.3025H76.3455ZM73.2758 48.7306C76.8467 47.9171 81.3572 48.7307 84.5209 50.7646C89.47 53.9251 92.3207 60.1208 91.4436 65.7846C90.0966 74.7966 81.2319 80.7421 72.5239 78.4578C64.881 76.4864 59.9944 69.0077 61.2786 61.31C62.3122 55.0829 67.0424 50.1388 73.2758 48.7306ZM76.8465 51.1713C72.8059 51.0462 69.9868 52.11 67.3243 54.801C64.4738 57.6173 63.1268 61.9044 63.816 65.722C64.7244 70.6035 68.0133 74.3898 72.5239 75.798C77.3791 77.3 82.6103 75.8606 85.9619 72.1056C87.1835 70.7601 88.5618 67.6622 88.9377 65.5343C89.8774 60.2773 86.7762 54.5821 81.7017 52.2039C79.979 51.3903 79.2271 51.2339 76.8465 51.1713Z" fill="white"/>
</g>
</g>
</g>
<defs>
<clipPath id="clip0_8214_14401">
<rect width="163" height="160" fill="white"/>
</clipPath>
<clipPath id="clip1_8214_14401">
<rect width="163" height="160" fill="white"/>
</clipPath>
<clipPath id="clip2_8214_14401">
<rect width="163" height="159.532" fill="white" transform="translate(0 0.234375)"/>
</clipPath>
</defs>
</svg>
