<svg width="14" height="14" viewBox="0 0 14 14" fill="none" xmlns="http://www.w3.org/2000/svg">
<path d="M7.87717 12.2485C4.49567 12.2485 1.75439 9.50721 1.75439 6.12568C1.75439 2.74415 4.49564 0.00292969 7.87717 0.00292969C11.2587 0.00292969 14 2.74418 14 6.12571C14 9.50724 11.2587 12.2485 7.87717 12.2485ZM7.87717 1.7523C5.4618 1.7523 3.50377 3.71033 3.50377 6.12571C3.50377 8.54109 5.4618 10.4991 7.87717 10.4991C10.2926 10.4991 12.2506 8.54109 12.2506 6.12571C12.2506 3.71033 10.2925 1.7523 7.87717 1.7523Z" fill="black"/>
<path d="M0.879756 13.9974C0.647253 13.9988 0.423796 13.9075 0.258735 13.7437C-0.0842604 13.4035 -0.0865215 12.8497 0.25367 12.5068C0.255358 12.5051 0.257046 12.5034 0.258735 12.5017L3.54753 9.21289C3.90259 8.86989 4.46847 8.87969 4.81146 9.23475C5.15446 9.5898 5.14466 10.1557 4.7896 10.4987L1.50078 13.7437C1.33572 13.9075 1.11226 13.9988 0.879756 13.9974Z" fill="black"/>
</svg>
