<svg width="14" height="17" viewBox="0 0 14 17" fill="none" xmlns="http://www.w3.org/2000/svg">
<path d="M11.6667 4.16667C11.6667 3.94565 11.5788 3.73375 11.4225 3.57747C11.2857 3.44069 11.1064 3.35631 10.9155 3.3374L10.8333 3.33333H9.85352C9.73035 3.68116 9.53347 4.00169 9.26758 4.26758C8.79874 4.73642 8.16304 5 7.5 5H5.83333C5.17029 5 4.5346 4.73642 4.06576 4.26758C3.79987 4.00169 3.60298 3.68116 3.47982 3.33333H2.5C2.27899 3.33333 2.06709 3.42119 1.91081 3.57747C1.75453 3.73375 1.66667 3.94565 1.66667 4.16667V14.1667L1.67074 14.2489C1.68964 14.4397 1.77402 14.6191 1.91081 14.7559C2.06709 14.9121 2.27899 15 2.5 15H10.8333C11.0543 15 11.2662 14.9121 11.4225 14.7559C11.5788 14.5996 11.6667 14.3877 11.6667 14.1667V4.16667ZM8.57747 7.74414C8.90291 7.4187 9.43042 7.4187 9.75586 7.74414C10.0813 8.06958 10.0813 8.59709 9.75586 8.92253L6.42253 12.2559C6.09709 12.5813 5.56958 12.5813 5.24414 12.2559L3.57747 10.5892C3.25204 10.2638 3.25204 9.73624 3.57747 9.41081C3.90291 9.08537 4.43042 9.08537 4.75586 9.41081L5.83333 10.4883L8.57747 7.74414ZM5.83333 1.66667C5.61232 1.66667 5.40042 1.75453 5.24414 1.91081C5.08786 2.06709 5 2.27899 5 2.5C5 2.72101 5.08786 2.93291 5.24414 3.08919C5.40042 3.24547 5.61232 3.33333 5.83333 3.33333H7.5L7.58219 3.32926C7.77303 3.31036 7.95241 3.22598 8.08919 3.08919C8.24547 2.93291 8.33333 2.72101 8.33333 2.5C8.33333 2.27899 8.24547 2.06709 8.08919 1.91081C7.95241 1.77402 7.77303 1.68964 7.58219 1.67074L7.5 1.66667H5.83333ZM13.3333 14.1667C13.3333 14.8297 13.0698 15.4654 12.6009 15.9342C12.1321 16.4031 11.4964 16.6667 10.8333 16.6667H2.5C1.83696 16.6667 1.20126 16.4031 0.732422 15.9342C0.263581 15.4654 0 14.8297 0 14.1667V4.16667C0 3.50363 0.263581 2.86793 0.732422 2.39909C1.20126 1.93025 1.83696 1.66667 2.5 1.66667H3.47982C3.60298 1.31884 3.79987 0.998311 4.06576 0.732422C4.5346 0.263581 5.17029 0 5.83333 0H7.5C8.16304 0 8.79874 0.263581 9.26758 0.732422C9.53347 0.998311 9.73035 1.31884 9.85352 1.66667H10.8333C11.4964 1.66667 12.1321 1.93025 12.6009 2.39909C13.0698 2.86793 13.3333 3.50363 13.3333 4.16667V14.1667Z" fill="#00A24D"/>
</svg>
